<svg width="22" height="23" viewBox="0 0 22 23" fill="none" xmlns="http://www.w3.org/2000/svg">
<path d="M10.9707 18.3992C7.33544 18.3992 4.3891 15.3107 4.3891 11.5C4.3891 7.68932 7.33544 4.60085 10.9707 4.60085C13.836 4.60085 16.2717 6.52106 17.1755 9.2017H21.7145C20.7013 3.95087 16.2798 0 10.9707 0C4.91191 0 0 5.14887 0 11.5C0 17.8511 4.91191 23 10.9707 23C13.4388 23 15.7205 22.1419 17.5524 20.7017V21.853H21.9415V13.8026H17.1755C16.2717 16.4832 13.836 18.4034 10.9707 18.4034V18.3992Z" fill="#00A7C2"/>
<path d="M10.9708 13.7983C12.1817 13.7983 13.1634 12.7693 13.1634 11.5C13.1634 10.2306 12.1817 9.20166 10.9708 9.20166C9.75995 9.20166 8.77832 10.2306 8.77832 11.5C8.77832 12.7693 9.75995 13.7983 10.9708 13.7983Z" fill="#00A7C2"/>
</svg>
