<svg width="95" height="23" viewBox="0 0 95 23" fill="none" xmlns="http://www.w3.org/2000/svg">
<g clip-path="url(#clip0_98_7016)">
<path d="M10.9707 18.3992C7.33544 18.3992 4.3891 15.3107 4.3891 11.5C4.3891 7.68932 7.33544 4.60085 10.9707 4.60085C13.836 4.60085 16.2717 6.52106 17.1755 9.2017H21.7145C20.7013 3.95087 16.2798 0 10.9707 0C4.91191 0 0 5.14887 0 11.5C0 17.8511 4.91191 23 10.9707 23C13.4388 23 15.7205 22.1419 17.5524 20.7017V21.853H21.9415V13.8025H17.1755C16.2717 16.4832 13.836 18.4034 10.9707 18.4034V18.3992Z" fill="#00A7C2"/>
<path d="M10.9708 13.7983C12.1817 13.7983 13.1634 12.7693 13.1634 11.5C13.1634 10.2306 12.1817 9.20166 10.9708 9.20166C9.75995 9.20166 8.77832 10.2306 8.77832 11.5C8.77832 12.7693 9.75995 13.7983 10.9708 13.7983Z" fill="#00A7C2"/>
<path d="M28.5517 7.25207V10.0389H28.6084C28.7908 9.57586 29.0421 9.14254 29.3541 8.74745C29.6662 8.35237 30.0269 8.01251 30.4322 7.73212C30.8374 7.45174 31.2711 7.23508 31.7331 7.07789C32.1951 6.92495 32.6733 6.84424 33.1718 6.84424C33.4312 6.84424 33.7149 6.89097 34.031 6.98868V10.8206C33.8446 10.7824 33.6257 10.7484 33.3663 10.7186C33.107 10.6889 32.8598 10.6762 32.6206 10.6762C31.8993 10.6762 31.2913 10.8036 30.7929 11.0542C30.2944 11.3049 29.8932 11.649 29.5892 12.0823C29.2852 12.5199 29.0664 13.0254 28.9367 13.6074C28.807 14.1895 28.7422 14.8182 28.7422 15.4937V22.2569H24.811V7.25207H28.5477H28.5517Z" fill="#231F20"/>
<path d="M35.1655 11.5002C35.5141 10.5231 36.0125 9.69042 36.661 9.0022C37.3054 8.31398 38.0835 7.78295 38.9872 7.40486C39.891 7.02677 40.9082 6.83984 42.0308 6.83984C43.1535 6.83984 44.1747 7.02677 45.0907 7.40486C46.0025 7.78295 46.7847 8.31398 47.4291 9.0022C48.0735 9.69042 48.572 10.5231 48.9245 11.5002C49.2771 12.4773 49.4514 13.5648 49.4514 14.7671C49.4514 15.9693 49.2771 17.0526 48.9245 18.017C48.572 18.9813 48.0735 19.8097 47.4291 20.498C46.7847 21.1862 46.0025 21.713 45.0907 22.0783C44.1788 22.4437 43.1575 22.6306 42.0308 22.6306C40.9042 22.6306 39.891 22.4479 38.9872 22.0783C38.0835 21.7087 37.3054 21.1819 36.661 20.498C36.0166 19.8097 35.5181 18.9856 35.1655 18.017C34.8129 17.0484 34.6387 15.9651 34.6387 14.7671C34.6387 13.5691 34.8129 12.4815 35.1655 11.5002V11.5002ZM38.736 16.5216C38.8454 17.0909 39.0359 17.6049 39.3034 18.0595C39.5708 18.514 39.9275 18.8751 40.3692 19.147C40.811 19.4189 41.3662 19.5548 42.0308 19.5548C42.6955 19.5548 43.2548 19.4189 43.7046 19.147C44.1585 18.8751 44.5152 18.514 44.7867 18.0595C45.0542 17.6049 45.2447 17.0909 45.3541 16.5216C45.4635 15.9523 45.5202 15.3661 45.5202 14.7671C45.5202 14.1681 45.4635 13.5776 45.3541 12.9956C45.2447 12.4135 45.0542 11.9038 44.7867 11.4577C44.5192 11.0116 44.1585 10.6505 43.7046 10.3701C43.2507 10.0898 42.6955 9.94956 42.0308 9.94956C41.3662 9.94956 40.811 10.0898 40.3692 10.3701C39.9275 10.6505 39.5708 11.0116 39.3034 11.4577C39.0359 11.9038 38.8454 12.4135 38.736 12.9956C38.6266 13.5776 38.5698 14.1681 38.5698 14.7671C38.5698 15.3661 38.6266 15.9523 38.736 16.5216Z" fill="#231F20"/>
<path d="M64.321 22.2524L61.7718 12.1798H61.7151L59.2794 22.2524H55.2104L50.6714 7.24756H54.8254L57.4557 17.4349H57.5124L59.8954 7.24756H63.7171L66.1528 17.4051H66.2095L68.8398 7.24756H72.8803L68.3656 22.2524H64.325H64.321Z" fill="#231F20"/>
<path d="M88.852 1.53369V5.36136H79.2997V10.1491H87.5795V13.6879H79.2997V22.2481H74.9512V1.53369H88.848H88.852Z" fill="#00A7C2"/>
<path d="M91.0693 4.92804V1.53369H95.0005V4.92804H91.0693ZM95.0005 7.25183V22.2524H91.0693V7.25183H95.0005Z" fill="#00A7C2"/>
</g>
<defs>
<clipPath id="clip0_98_7016">
<rect width="95" height="23" fill="white"/>
</clipPath>
</defs>
</svg>
