<svg width="71" height="22" viewBox="0 0 71 22" fill="none" xmlns="http://www.w3.org/2000/svg">
<path d="M4.5517 6.25207V9.03892H4.60844C4.79081 8.57586 5.04208 8.14254 5.35414 7.74745C5.6662 7.35237 6.02689 7.01251 6.43217 6.73212C6.83744 6.45174 7.27108 6.23508 7.7331 6.07789C8.19511 5.92495 8.67333 5.84424 9.17181 5.84424C9.43119 5.84424 9.71488 5.89097 10.031 5.98868V9.8206C9.84457 9.78236 9.62572 9.74838 9.36634 9.71864C9.10697 9.6889 8.85975 9.67616 8.62064 9.67616C7.89926 9.67616 7.29135 9.8036 6.79286 10.0542C6.29438 10.3049 5.89316 10.649 5.5892 11.0823C5.28525 11.5199 5.0664 12.0254 4.93671 12.6074C4.80703 13.1895 4.74218 13.8182 4.74218 14.4937V21.2569H0.811035V6.25207H4.54765H4.5517Z" fill="#231F20"/>
<path d="M11.1655 10.5002C11.5141 9.52307 12.0125 8.69042 12.661 8.0022C13.3054 7.31398 14.0835 6.78295 14.9872 6.40486C15.891 6.02677 16.9082 5.83984 18.0308 5.83984C19.1535 5.83984 20.1747 6.02677 21.0907 6.40486C22.0025 6.78295 22.7847 7.31398 23.4291 8.0022C24.0735 8.69042 24.572 9.52307 24.9245 10.5002C25.2771 11.4773 25.4514 12.5648 25.4514 13.7671C25.4514 14.9693 25.2771 16.0526 24.9245 17.017C24.572 17.9813 24.0735 18.8097 23.4291 19.498C22.7847 20.1862 22.0025 20.713 21.0907 21.0783C20.1788 21.4437 19.1575 21.6306 18.0308 21.6306C16.9042 21.6306 15.891 21.4479 14.9872 21.0783C14.0835 20.7087 13.3054 20.1819 12.661 19.498C12.0166 18.8097 11.5181 17.9856 11.1655 17.017C10.8129 16.0484 10.6387 14.9651 10.6387 13.7671C10.6387 12.5691 10.8129 11.4815 11.1655 10.5002ZM14.736 15.5216C14.8454 16.0909 15.0359 16.6049 15.3034 17.0595C15.5708 17.514 15.9275 17.8751 16.3692 18.147C16.811 18.4189 17.3662 18.5548 18.0308 18.5548C18.6955 18.5548 19.2548 18.4189 19.7046 18.147C20.1585 17.8751 20.5152 17.514 20.7867 17.0595C21.0542 16.6049 21.2447 16.0909 21.3541 15.5216C21.4635 14.9523 21.5202 14.3661 21.5202 13.7671C21.5202 13.1681 21.4635 12.5776 21.3541 11.9956C21.2447 11.4135 21.0542 10.9038 20.7867 10.4577C20.5192 10.0116 20.1585 9.65052 19.7046 9.37014C19.2507 9.08975 18.6955 8.94956 18.0308 8.94956C17.3662 8.94956 16.811 9.08975 16.3692 9.37014C15.9275 9.65052 15.5708 10.0116 15.3034 10.4577C15.0359 10.9038 14.8454 11.4135 14.736 11.9956C14.6266 12.5776 14.5698 13.1681 14.5698 13.7671C14.5698 14.3661 14.6266 14.9523 14.736 15.5216Z" fill="#231F20"/>
<path d="M40.321 21.2524L37.7718 11.1798H37.7151L35.2794 21.2524H31.2104L26.6714 6.24756H30.8254L33.4557 16.4349H33.5124L35.8954 6.24756H39.7171L42.1528 16.4051H42.2095L44.8398 6.24756H48.8803L44.3656 21.2524H40.325H40.321Z" fill="#231F20"/>
<path d="M64.852 0.533691V4.36136H55.2997V9.14913H63.5795V12.6879H55.2997V21.2481H50.9512V0.533691H64.848H64.852Z" fill="#00A7C2"/>
<path d="M67.0693 3.92804V0.533691H71.0005V3.92804H67.0693ZM71.0005 6.25183V21.2524H67.0693V6.25183H71.0005Z" fill="#00A7C2"/>
</svg>
