<svg width="59" height="57" viewBox="0 0 59 57" fill="none" xmlns="http://www.w3.org/2000/svg">
<path opacity="0.21" fill-rule="evenodd" clip-rule="evenodd" d="M0.939453 28.645V33.4569C0.939453 46.1595 11.2369 56.4569 23.9394 56.4569H29.8059H35.6723C48.3749 56.4569 58.6723 46.1595 58.6723 33.4569V28.645V23.833C58.6723 11.1305 48.3749 0.833008 35.6723 0.833008H29.8059H23.9395C11.2369 0.833008 0.939453 11.1305 0.939453 23.833V28.645Z" fill="#FEC53D"/>
<path fill-rule="evenodd" clip-rule="evenodd" d="M15.3726 23.3759L27.7856 30.2808C27.9193 30.3552 28.0594 30.4089 28.2021 30.443V43.8346L16.2579 37.0242C15.7091 36.7113 15.3726 36.1426 15.3726 35.5283V23.3759ZM44.2396 23.1924V35.5283C44.2396 36.1426 43.903 36.7114 43.3543 37.0242L31.41 43.8346V30.3256C31.4391 30.3116 31.468 30.2967 31.4965 30.2808L44.2396 23.1924Z" fill="#FEC53D"/>
<path opacity="0.499209" fill-rule="evenodd" clip-rule="evenodd" d="M15.7627 20.0245C15.9143 19.84 16.1057 19.6841 16.3288 19.5696L28.9579 13.0888C29.488 12.8168 30.124 12.8168 30.6541 13.0888L43.2832 19.5696C43.4552 19.6579 43.6083 19.7707 43.7389 19.9023L29.8925 27.6045C29.8014 27.6552 29.7175 27.7131 29.641 27.7772C29.5645 27.7131 29.4806 27.6552 29.3895 27.6045L15.7627 20.0245Z" fill="#FEC53D"/>
</svg>
