<svg width="20" height="20" viewBox="0 0 20 20" fill="none" xmlns="http://www.w3.org/2000/svg">
<path d="M3.29134 16.25C2.95801 16.25 2.67329 16.1319 2.43717 15.8958C2.20106 15.6597 2.08301 15.375 2.08301 15.0417V4.95833C2.08301 4.625 2.20106 4.34028 2.43717 4.10417C2.67329 3.86806 2.95801 3.75 3.29134 3.75H16.708C17.0413 3.75 17.3261 3.86806 17.5622 4.10417C17.7983 4.34028 17.9163 4.625 17.9163 4.95833V15.0417C17.9163 15.375 17.7983 15.6597 17.5622 15.8958C17.3261 16.1319 17.0413 16.25 16.708 16.25H3.29134ZM9.99967 10.125L3.02051 5.52083V15.0417C3.02051 15.125 3.04481 15.191 3.09342 15.2396C3.14204 15.2882 3.20801 15.3125 3.29134 15.3125H16.708C16.7913 15.3125 16.8573 15.2882 16.9059 15.2396C16.9545 15.191 16.9788 15.125 16.9788 15.0417V5.52083L9.99967 10.125ZM9.99967 9.125L16.7913 4.6875H3.22884L9.99967 9.125ZM3.02051 5.52083V4.6875V15.0417C3.02051 15.125 3.04481 15.191 3.09342 15.2396C3.14204 15.2882 3.20801 15.3125 3.29134 15.3125H3.02051V15.0417V5.52083Z" fill="black"/>
</svg>
