<svg width="16" height="18" viewBox="0 0 16 18" fill="none" xmlns="http://www.w3.org/2000/svg">
<path d="M8.00065 17.0832L0.708984 12.9582V4.87484L8.00065 0.916504L15.2923 4.87484V12.9582L8.00065 17.0832ZM5.66732 7.14567C5.95898 6.81234 6.30968 6.5415 6.7194 6.33317C7.12912 6.12484 7.55621 6.02067 8.00065 6.02067C8.4451 6.02067 8.87218 6.12484 9.2819 6.33317C9.69162 6.5415 10.0423 6.81234 10.334 7.14567L13.8132 5.14567L8.00065 1.99984L2.18815 5.14567L5.66732 7.14567ZM7.52148 15.729V11.9582C6.81315 11.7915 6.2194 11.4373 5.74023 10.8957C5.26107 10.354 5.02148 9.72206 5.02148 8.99984C5.02148 8.83317 5.03537 8.6665 5.06315 8.49984C5.09093 8.33317 5.13954 8.1665 5.20898 7.99984L1.64648 5.93734V12.3957L7.52148 15.729ZM8.00065 11.0207C8.5701 11.0207 9.04926 10.8262 9.43815 10.4373C9.82704 10.0484 10.0215 9.56928 10.0215 8.99984C10.0215 8.43039 9.82704 7.95123 9.43815 7.56234C9.04926 7.17345 8.5701 6.979 8.00065 6.979C7.43121 6.979 6.95204 7.17345 6.56315 7.56234C6.17426 7.95123 5.97982 8.43039 5.97982 8.99984C5.97982 9.56928 6.17426 10.0484 6.56315 10.4373C6.95204 10.8262 7.43121 11.0207 8.00065 11.0207ZM8.47982 15.729L14.3548 12.3957V5.93734L10.7923 7.99984C10.8618 8.1665 10.9104 8.33317 10.9382 8.49984C10.9659 8.6665 10.9798 8.83317 10.9798 8.99984C10.9798 9.72206 10.7402 10.354 10.2611 10.8957C9.7819 11.4373 9.18815 11.7915 8.47982 11.9582V15.729Z" fill="black"/>
</svg>
