<svg width="20" height="20" viewBox="0 0 20 20" fill="none" xmlns="http://www.w3.org/2000/svg">
<path d="M4.00033 16.146H4.83366L14.042 6.93766L13.1878 6.0835L4.00033 15.2918V16.146ZM16.0628 6.25016L13.8753 4.0835L14.5837 3.37516C14.8198 3.13905 15.101 3.021 15.4274 3.021C15.7538 3.021 16.0281 3.13905 16.2503 3.37516L16.9378 4.04183C17.1184 4.22238 17.2087 4.44461 17.2087 4.7085C17.2087 4.97239 17.1184 5.19461 16.9378 5.37516L16.0628 6.25016ZM15.3962 6.91683L5.20866 17.0835H3.04199V14.9168L13.2087 4.75016L15.3962 6.91683ZM13.6253 6.50016L13.1878 6.0835L14.042 6.93766L13.6253 6.50016Z" fill="black"/>
</svg>
