<svg width="59" height="57" viewBox="0 0 59 57" fill="none" xmlns="http://www.w3.org/2000/svg">
<path opacity="0.3" fill-rule="evenodd" clip-rule="evenodd" d="M0.87207 28.645V33.4569C0.87207 46.1595 11.1695 56.4569 23.8721 56.4569H29.7385H35.6049C48.3075 56.4569 58.6049 46.1595 58.6049 33.4569V28.645V23.833C58.6049 11.1305 48.3075 0.833008 35.6049 0.833008H29.7385H23.8721C11.1695 0.833008 0.87207 11.1305 0.87207 23.833V28.645Z" fill="#FF9066"/>
<path opacity="0.78" fill-rule="evenodd" clip-rule="evenodd" d="M28.4195 22.9377C28.4402 22.6779 28.6572 22.4775 28.9179 22.4775H29.2884C29.5446 22.4775 29.7593 22.6711 29.7857 22.9259L30.3807 28.658L34.6121 30.9876C34.7718 31.0755 34.871 31.2434 34.871 31.4256V31.7179C34.871 32.0456 34.5609 32.2848 34.2439 32.2015L28.2194 30.6184C27.9852 30.5569 27.8288 30.3364 27.8481 30.0951L28.4195 22.9377Z" fill="#FF9066"/>
<path opacity="0.901274" fill-rule="evenodd" clip-rule="evenodd" d="M22.7716 14.7652C22.5023 14.4559 21.9846 14.5716 21.8878 14.9627L20.3375 21.2246C20.2581 21.5451 20.5231 21.8502 20.8645 21.8316L27.5505 21.4666C27.9678 21.4438 28.1771 20.9719 27.9073 20.6621L26.2096 18.7127C27.3305 18.3437 28.5191 18.1509 29.7396 18.1509C35.7623 18.1509 40.6447 22.8549 40.6447 28.6576C40.6447 34.4604 35.7623 39.1644 29.7396 39.1644C23.7168 39.1644 18.8345 34.4604 18.8345 28.6576C18.8345 27.6835 18.9714 26.7294 19.2383 25.8124L16.7678 25.1448C16.4425 26.262 16.2686 27.4403 16.2686 28.6576C16.2686 35.8257 22.2997 41.6366 29.7396 41.6366C37.1794 41.6366 43.2106 35.8257 43.2106 28.6576C43.2106 21.4896 37.1794 15.6787 29.7396 15.6787C27.8681 15.6787 26.0858 16.0464 24.4662 16.7109L22.7716 14.7652Z" fill="#FF9066"/>
</svg>
