<svg width="16" height="16" viewBox="0 0 16 16" fill="none" xmlns="http://www.w3.org/2000/svg">
<path d="M2.12533 15.0832C1.79199 15.0832 1.50727 14.9651 1.27116 14.729C1.03505 14.4929 0.916992 14.2082 0.916992 13.8748V2.12484C0.916992 1.7915 1.03505 1.50678 1.27116 1.27067C1.50727 1.03456 1.79199 0.916504 2.12533 0.916504H11.1878L15.0837 4.81234V13.8748C15.0837 14.2082 14.9656 14.4929 14.7295 14.729C14.4934 14.9651 14.2087 15.0832 13.8753 15.0832H2.12533ZM2.12533 14.1457H13.8753C13.9587 14.1457 14.0246 14.1214 14.0732 14.0728C14.1219 14.0241 14.1462 13.9582 14.1462 13.8748V5.37484H10.6462V1.854H2.12533C2.04199 1.854 1.97602 1.87831 1.92741 1.92692C1.8788 1.97553 1.85449 2.0415 1.85449 2.12484V13.8748C1.85449 13.9582 1.8788 14.0241 1.92741 14.0728C1.97602 14.1214 2.04199 14.1457 2.12533 14.1457ZM4.02116 11.5832H11.9795V10.6457H4.02116V11.5832ZM4.02116 5.354H8.00033V4.4165H4.02116V5.354ZM4.02116 8.479H11.9795V7.52067H4.02116V8.479ZM1.85449 1.854V5.37484V1.854V14.1457V1.854Z" fill="black"/>
</svg>
