<svg width="18" height="16" viewBox="0 0 18 16" fill="none" xmlns="http://www.w3.org/2000/svg">
<path d="M2.08333 15.2915C1.75 15.2915 1.46528 15.1734 1.22917 14.9373C0.993056 14.7012 0.875 14.4165 0.875 14.0832V0.999837L2.0625 2.18734L3.4375 0.791504L4.83333 2.18734L6.22917 0.791504L7.60417 2.18734L9 0.791504L10.3958 2.18734L11.7708 0.791504L13.1667 2.18734L14.5625 0.791504L15.9375 2.18734L17.125 0.999837V14.0832C17.125 14.4165 17.0069 14.7012 16.7708 14.9373C16.5347 15.1734 16.25 15.2915 15.9167 15.2915H2.08333ZM2.08333 14.354H8.52083V8.31234H1.8125V14.0832C1.8125 14.1665 1.83681 14.2325 1.88542 14.2811C1.93403 14.3297 2 14.354 2.08333 14.354ZM9.47917 14.354H15.9167C16 14.354 16.066 14.3297 16.1146 14.2811C16.1632 14.2325 16.1875 14.1665 16.1875 14.0832V11.8123H9.47917V14.354ZM9.47917 10.854H16.1875V8.31234H9.47917V10.854ZM1.8125 7.37484H16.1875V4.37484H1.8125V7.37484Z" fill="white"/>
</svg>
