<svg width="59" height="57" viewBox="0 0 59 57" fill="none" xmlns="http://www.w3.org/2000/svg">
<path opacity="0.21" fill-rule="evenodd" clip-rule="evenodd" d="M0.905273 28.645V33.4569C0.905273 46.1595 11.2027 56.4569 23.9053 56.4569H29.7717H35.6381C48.3407 56.4569 58.6381 46.1595 58.6381 33.4569V28.645V23.833C58.6381 11.1305 48.3407 0.833008 35.6382 0.833008H29.7717H23.9053C11.2027 0.833008 0.905273 11.1305 0.905273 23.833V28.645Z" fill="#4AD991"/>
<path d="M19.2953 38.7396H41.747C42.5736 38.7396 43.2438 39.3853 43.2438 40.1817C43.2438 40.9782 42.5736 41.6238 41.747 41.6238H17.7985C16.9719 41.6238 16.3018 40.9782 16.3018 40.1817V17.1081C16.3018 16.3117 16.9719 15.666 17.7985 15.666C18.6252 15.666 19.2953 16.3117 19.2953 17.1081V38.7396Z" fill="#4AD991"/>
<path opacity="0.5" d="M24.8778 32.5155C24.3124 33.0965 23.3652 33.126 22.7621 32.5813C22.1591 32.0365 22.1285 31.1239 22.6939 30.5429L28.3068 24.7745C28.8536 24.2125 29.7622 24.1638 30.3703 24.6638L34.8004 28.306L40.5724 21.2619C41.0846 20.6368 42.0258 20.5301 42.6747 21.0237C43.3235 21.5172 43.4342 22.424 42.922 23.0491L36.1865 31.2691C35.6604 31.9111 34.6859 32.0035 34.0401 31.4725L29.5138 27.7511L24.8778 32.5155Z" fill="#4AD991"/>
</svg>
