<svg width="36" height="39" viewBox="0 0 36 39" fill="none" xmlns="http://www.w3.org/2000/svg">
<path d="M12.4 15.5501C13.1 14.7501 13.9417 14.1001 14.925 13.6001C15.9083 13.1001 16.9333 12.8501 18 12.8501C19.0667 12.8501 20.0917 13.1001 21.075 13.6001C22.0583 14.1001 22.9 14.7501 23.6 15.5501L34.25 9.4501L18 0.600098L1.75 9.4501L12.4 15.5501ZM16.85 38.7501V27.1001C15.15 26.7001 13.725 25.8501 12.575 24.5501C11.425 23.2501 10.85 21.7334 10.85 20.0001C10.85 19.6001 10.8833 19.2001 10.95 18.8001C11.0167 18.4001 11.1333 18.0001 11.3 17.6001L0.5 11.2501V29.5001L16.85 38.7501ZM18 24.8501C19.3667 24.8501 20.5167 24.3834 21.45 23.4501C22.3833 22.5168 22.85 21.3668 22.85 20.0001C22.85 18.6334 22.3833 17.4834 21.45 16.5501C20.5167 15.6168 19.3667 15.1501 18 15.1501C16.6333 15.1501 15.4833 15.6168 14.55 16.5501C13.6167 17.4834 13.15 18.6334 13.15 20.0001C13.15 21.3668 13.6167 22.5168 14.55 23.4501C15.4833 24.3834 16.6333 24.8501 18 24.8501ZM19.15 38.7501L35.5 29.5001V11.2501L24.7 17.6001C24.8667 18.0001 24.9833 18.4001 25.05 18.8001C25.1167 19.2001 25.15 19.6001 25.15 20.0001C25.15 21.7334 24.575 23.2501 23.425 24.5501C22.275 25.8501 20.85 26.7001 19.15 27.1001V38.7501Z" fill="black"/>
</svg>
