<svg width="20" height="20" viewBox="0 0 20 20" fill="none" xmlns="http://www.w3.org/2000/svg">
<path d="M5.79167 17.0835C5.47222 17.0835 5.19444 16.9654 4.95833 16.7293C4.72222 16.4932 4.60417 16.2085 4.60417 15.8752V4.54183H3.75V3.60433H7.3125V3.021H12.6875V3.60433H16.25V4.54183H15.3958V15.8752C15.3958 16.2085 15.2778 16.4932 15.0417 16.7293C14.8056 16.9654 14.5278 17.0835 14.2083 17.0835H5.79167ZM14.4583 4.54183H5.54167V15.8752C5.54167 15.9585 5.56597 16.0245 5.61458 16.0731C5.66319 16.1217 5.72222 16.146 5.79167 16.146H14.2083C14.2639 16.146 14.3194 16.1182 14.375 16.0627C14.4306 16.0071 14.4583 15.9446 14.4583 15.8752V4.54183ZM7.9375 14.3752H8.89583V6.29183H7.9375V14.3752ZM11.1042 14.3752H12.0625V6.29183H11.1042V14.3752ZM5.54167 4.54183V16.146V15.8752V4.54183Z" fill="black"/>
</svg>
