<svg width="14" height="13" viewBox="0 0 14 13" fill="none" xmlns="http://www.w3.org/2000/svg">
<path d="M7 5.72933C6.19444 5.72933 5.53125 5.46891 5.01042 4.94808C4.48958 4.42725 4.22917 3.76405 4.22917 2.9585C4.22917 2.15294 4.48958 1.49322 5.01042 0.979329C5.53125 0.46544 6.19444 0.208496 7 0.208496C7.80556 0.208496 8.46875 0.46544 8.98958 0.979329C9.51042 1.49322 9.77083 2.15294 9.77083 2.9585C9.77083 3.76405 9.51042 4.42725 8.98958 4.94808C8.46875 5.46891 7.80556 5.72933 7 5.72933ZM0.75 12.0835V10.5002C0.75 10.0557 0.868056 9.66683 1.10417 9.3335C1.34028 9.00016 1.64583 8.74322 2.02083 8.56266C2.90972 8.17377 3.76042 7.88211 4.57292 7.68766C5.38542 7.49322 6.19444 7.396 7 7.396C7.80556 7.396 8.61458 7.49669 9.42708 7.69808C10.2396 7.89947 11.0833 8.18766 11.9583 8.56266C12.3472 8.74322 12.6597 9.00016 12.8958 9.3335C13.1319 9.66683 13.25 10.0557 13.25 10.5002V12.0835H0.75Z" fill="white"/>
</svg>
