<svg width="14" height="13" viewBox="0 0 14 13" fill="none" xmlns="http://www.w3.org/2000/svg">
<path d="M7 5.72933C6.19444 5.72933 5.53125 5.46891 5.01042 4.94808C4.48958 4.42725 4.22917 3.76405 4.22917 2.9585C4.22917 2.15294 4.48958 1.49322 5.01042 0.979329C5.53125 0.46544 6.19444 0.208496 7 0.208496C7.80556 0.208496 8.46875 0.46544 8.98958 0.979329C9.51042 1.49322 9.77083 2.15294 9.77083 2.9585C9.77083 3.76405 9.51042 4.42725 8.98958 4.94808C8.46875 5.46891 7.80556 5.72933 7 5.72933ZM0.75 12.0835V10.5002C0.75 10.0557 0.868056 9.66683 1.10417 9.3335C1.34028 9.00016 1.64583 8.74322 2.02083 8.56266C2.90972 8.17377 3.76042 7.88211 4.57292 7.68766C5.38542 7.49322 6.19444 7.396 7 7.396C7.80556 7.396 8.61458 7.49669 9.42708 7.69808C10.2396 7.89947 11.0833 8.19461 11.9583 8.5835C12.3472 8.76405 12.6597 9.01752 12.8958 9.34391C13.1319 9.6703 13.25 10.0557 13.25 10.5002V12.0835H0.75ZM1.6875 11.146H12.3125V10.5002C12.3125 10.2918 12.2431 10.087 12.1042 9.88558C11.9653 9.68419 11.7847 9.52794 11.5625 9.41683C10.7431 9.01405 9.96875 8.7328 9.23958 8.57308C8.51042 8.41336 7.76389 8.3335 7 8.3335C6.23611 8.3335 5.48264 8.41336 4.73958 8.57308C3.99653 8.7328 3.22222 9.01405 2.41667 9.41683C2.20833 9.52794 2.03472 9.68419 1.89583 9.88558C1.75694 10.087 1.6875 10.2918 1.6875 10.5002V11.146ZM7 4.79183C7.51389 4.79183 7.94444 4.61822 8.29167 4.271C8.63889 3.92377 8.8125 3.48627 8.8125 2.9585C8.8125 2.44461 8.63889 2.01405 8.29167 1.66683C7.94444 1.31961 7.51389 1.146 7 1.146C6.48611 1.146 6.05556 1.31961 5.70833 1.66683C5.36111 2.01405 5.1875 2.44461 5.1875 2.9585C5.1875 3.48627 5.36111 3.92377 5.70833 4.271C6.05556 4.61822 6.48611 4.79183 7 4.79183Z" fill="black"/>
</svg>
