<svg width="59" height="57" viewBox="0 0 59 57" fill="none" xmlns="http://www.w3.org/2000/svg">
<path opacity="0.21" fill-rule="evenodd" clip-rule="evenodd" d="M0.970703 28.645V33.4569C0.970703 46.1595 11.2681 56.4569 23.9707 56.4569H29.8371H35.7036C48.4061 56.4569 58.7036 46.1595 58.7036 33.4569V28.645V23.833C58.7036 11.1305 48.4061 0.833008 35.7036 0.833008H29.8371H23.9707C11.2682 0.833008 0.970703 11.1305 0.970703 23.833V28.645Z" fill="#8280FF"/>
<path opacity="0.587821" fill-rule="evenodd" clip-rule="evenodd" d="M20.8574 22.4644C20.8574 25.1951 23.155 27.4087 25.9892 27.4087C28.8235 27.4087 31.121 25.1951 31.121 22.4644C31.121 19.7337 28.8235 17.52 25.9892 17.52C23.155 17.52 20.8574 19.7337 20.8574 22.4644ZM33.6865 27.4089C33.6865 29.457 35.4096 31.1172 37.5353 31.1172C39.661 31.1172 41.3842 29.457 41.3842 27.4089C41.3842 25.3609 39.661 23.7007 37.5353 23.7007C35.4096 23.7007 33.6865 25.3609 33.6865 27.4089Z" fill="#8280FF"/>
<path fill-rule="evenodd" clip-rule="evenodd" d="M25.9676 29.8809C19.9102 29.8809 14.9405 32.8802 14.4432 38.7797C14.4161 39.1011 15.054 39.7696 15.3757 39.7696H36.5691C37.5329 39.7696 37.5478 39.0223 37.5329 38.7807C37.1569 32.7154 32.1102 29.8809 25.9676 29.8809ZM44.5353 39.7695H39.5879C39.5879 36.9872 38.6338 34.4196 37.0235 32.3538C41.3941 32.3997 44.9628 34.5286 45.2314 39.0279C45.2422 39.2091 45.2314 39.7695 44.5353 39.7695Z" fill="#8280FF"/>
</svg>
