<svg width="16" height="16" viewBox="0 0 16 16" fill="none" xmlns="http://www.w3.org/2000/svg">
<path d="M4.41602 11.8748C4.56879 11.8748 4.70421 11.8193 4.82227 11.7082C4.94032 11.5971 4.99935 11.4582 4.99935 11.2915C4.99935 11.1387 4.94032 11.0033 4.82227 10.8853C4.70421 10.7672 4.56879 10.7082 4.41602 10.7082C4.24935 10.7082 4.11046 10.7672 3.99935 10.8853C3.88824 11.0033 3.83268 11.1387 3.83268 11.2915C3.83268 11.4582 3.88824 11.5971 3.99935 11.7082C4.11046 11.8193 4.24935 11.8748 4.41602 11.8748ZM4.41602 8.58317C4.56879 8.58317 4.70421 8.52762 4.82227 8.4165C4.94032 8.30539 4.99935 8.1665 4.99935 7.99984C4.99935 7.83317 4.94032 7.69428 4.82227 7.58317C4.70421 7.47206 4.56879 7.4165 4.41602 7.4165C4.24935 7.4165 4.11046 7.47206 3.99935 7.58317C3.88824 7.69428 3.83268 7.83317 3.83268 7.99984C3.83268 8.1665 3.88824 8.30539 3.99935 8.4165C4.11046 8.52762 4.24935 8.58317 4.41602 8.58317ZM4.41602 5.2915C4.56879 5.2915 4.70421 5.23248 4.82227 5.11442C4.94032 4.99637 4.99935 4.86095 4.99935 4.70817C4.99935 4.5415 4.94032 4.40262 4.82227 4.2915C4.70421 4.18039 4.56879 4.12484 4.41602 4.12484C4.24935 4.12484 4.11046 4.18039 3.99935 4.2915C3.88824 4.40262 3.83268 4.5415 3.83268 4.70817C3.83268 4.86095 3.88824 4.99637 3.99935 5.11442C4.11046 5.23248 4.24935 5.2915 4.41602 5.2915ZM7.12435 11.7707H11.9368V10.8332H7.12435V11.7707ZM7.12435 8.479H11.9368V7.52067H7.12435V8.479ZM7.12435 5.1665H11.9368V4.229H7.12435V5.1665ZM2.12435 15.0832C1.79102 15.0832 1.50629 14.9651 1.27018 14.729C1.03407 14.4929 0.916016 14.2082 0.916016 13.8748V2.12484C0.916016 1.7915 1.03407 1.50678 1.27018 1.27067C1.50629 1.03456 1.79102 0.916504 2.12435 0.916504H13.8743C14.2077 0.916504 14.4924 1.03456 14.7285 1.27067C14.9646 1.50678 15.0827 1.7915 15.0827 2.12484V13.8748C15.0827 14.2082 14.9646 14.4929 14.7285 14.729C14.4924 14.9651 14.2077 15.0832 13.8743 15.0832H2.12435ZM2.12435 14.1457H13.8743C13.9438 14.1457 14.0063 14.1179 14.0618 14.0623C14.1174 14.0068 14.1452 13.9443 14.1452 13.8748V2.12484C14.1452 2.05539 14.1174 1.99289 14.0618 1.93734C14.0063 1.88178 13.9438 1.854 13.8743 1.854H2.12435C2.0549 1.854 1.9924 1.88178 1.93685 1.93734C1.88129 1.99289 1.85352 2.05539 1.85352 2.12484V13.8748C1.85352 13.9443 1.88129 14.0068 1.93685 14.0623C1.9924 14.1179 2.0549 14.1457 2.12435 14.1457ZM1.85352 1.854V14.1457V1.854Z" fill="black"/>
</svg>
