<svg width="16" height="16" viewBox="0 0 16 16" fill="none" xmlns="http://www.w3.org/2000/svg">
<path d="M4.41699 11.8748C4.56977 11.8748 4.70519 11.8193 4.82324 11.7082C4.9413 11.5971 5.00033 11.4582 5.00033 11.2915C5.00033 11.1387 4.9413 11.0033 4.82324 10.8853C4.70519 10.7672 4.56977 10.7082 4.41699 10.7082C4.25033 10.7082 4.11144 10.7672 4.00033 10.8853C3.88921 11.0033 3.83366 11.1387 3.83366 11.2915C3.83366 11.4582 3.88921 11.5971 4.00033 11.7082C4.11144 11.8193 4.25033 11.8748 4.41699 11.8748ZM4.41699 8.58317C4.56977 8.58317 4.70519 8.52762 4.82324 8.4165C4.9413 8.30539 5.00033 8.1665 5.00033 7.99984C5.00033 7.83317 4.9413 7.69428 4.82324 7.58317C4.70519 7.47206 4.56977 7.4165 4.41699 7.4165C4.25033 7.4165 4.11144 7.47206 4.00033 7.58317C3.88921 7.69428 3.83366 7.83317 3.83366 7.99984C3.83366 8.1665 3.88921 8.30539 4.00033 8.4165C4.11144 8.52762 4.25033 8.58317 4.41699 8.58317ZM4.41699 5.2915C4.56977 5.2915 4.70519 5.23248 4.82324 5.11442C4.9413 4.99637 5.00033 4.86095 5.00033 4.70817C5.00033 4.5415 4.9413 4.40262 4.82324 4.2915C4.70519 4.18039 4.56977 4.12484 4.41699 4.12484C4.25033 4.12484 4.11144 4.18039 4.00033 4.2915C3.88921 4.40262 3.83366 4.5415 3.83366 4.70817C3.83366 4.86095 3.88921 4.99637 4.00033 5.11442C4.11144 5.23248 4.25033 5.2915 4.41699 5.2915ZM7.12533 11.7707H11.9378V10.8332H7.12533V11.7707ZM7.12533 8.479H11.9378V7.52067H7.12533V8.479ZM7.12533 5.1665H11.9378V4.229H7.12533V5.1665ZM2.12533 15.0832C1.79199 15.0832 1.50727 14.9651 1.27116 14.729C1.03505 14.4929 0.916992 14.2082 0.916992 13.8748V2.12484C0.916992 1.7915 1.03505 1.50678 1.27116 1.27067C1.50727 1.03456 1.79199 0.916504 2.12533 0.916504H13.8753C14.2087 0.916504 14.4934 1.03456 14.7295 1.27067C14.9656 1.50678 15.0837 1.7915 15.0837 2.12484V13.8748C15.0837 14.2082 14.9656 14.4929 14.7295 14.729C14.4934 14.9651 14.2087 15.0832 13.8753 15.0832H2.12533Z" fill="white"/>
</svg>
